<?xml version="1.0" encoding="UTF-8" standalone="no"?>
<!-- Created with Inkscape (http://www.inkscape.org/) -->

<svg
   xmlns:dc="http://purl.org/dc/elements/1.1/"
   xmlns:cc="http://creativecommons.org/ns#"
   xmlns:rdf="http://www.w3.org/1999/02/22-rdf-syntax-ns#"
   xmlns:svg="http://www.w3.org/2000/svg"
   xmlns="http://www.w3.org/2000/svg"
   xmlns:sodipodi="http://sodipodi.sourceforge.net/DTD/sodipodi-0.dtd"
   xmlns:inkscape="http://www.inkscape.org/namespaces/inkscape"
   width="600"
   height="600"
   viewBox="0 0 600.00001 600.00001"
   id="svg2"
   version="1.1"
   inkscape:version="0.91 r13725"
   sodipodi:docname="main-logo.svg"
   style="enable-background:new"
   inkscape:export-filename="D:\Tool\Dropbox\自分用\tech関連\Portofolio\html\img\logo\main-logo.png"
   inkscape:export-xdpi="90"
   inkscape:export-ydpi="90">
  <defs
     id="defs4">
    <filter
       inkscape:collect="always"
       style="color-interpolation-filters:sRGB"
       id="filter4171">
      <feBlend
         inkscape:collect="always"
         mode="darken"
         in2="BackgroundImage"
         id="feBlend4173" />
    </filter>
  </defs>
  <sodipodi:namedview
     id="base"
     pagecolor="#ffffff"
     bordercolor="#666666"
     borderopacity="1.0"
     inkscape:pageopacity="0.0"
     inkscape:pageshadow="2"
     inkscape:zoom="0.60875"
     inkscape:cx="332.59426"
     inkscape:cy="499.19277"
     inkscape:document-units="px"
     inkscape:current-layer="layer2"
     showgrid="true"
     units="px"
     inkscape:window-width="1920"
     inkscape:window-height="1017"
     inkscape:window-x="-8"
     inkscape:window-y="-8"
     inkscape:window-maximized="1"
     showguides="true"
     width="743.09448px">
    <inkscape:grid
       type="xygrid"
       id="grid4212" />
  </sodipodi:namedview>
  <metadata
     id="metadata7">
    <rdf:RDF>
      <cc:Work
         rdf:about="">
        <dc:format>image/svg+xml</dc:format>
        <dc:type
           rdf:resource="http://purl.org/dc/dcmitype/StillImage" />
        <dc:title></dc:title>
      </cc:Work>
    </rdf:RDF>
  </metadata>
  <g
     inkscape:groupmode="layer"
     id="layer2"
     inkscape:label="background"
     transform="translate(0,-144.09444)"
     style="display:inline">
    <rect
       style="opacity:1;fill:#ffffff;fill-opacity:1;fill-rule:nonzero;stroke:none;stroke-width:10;stroke-miterlimit:4;stroke-dasharray:none;stroke-opacity:1"
       id="rect4174"
       width="600"
       height="600"
       x="0"
       y="144.09444"
       inkscape:export-xdpi="90"
       inkscape:export-ydpi="90" />
  </g>
  <g
     inkscape:label="mark"
     inkscape:groupmode="layer"
     id="layer1"
     transform="translate(0,-452.36216)"
     style="display:inline">
    <g
       style="opacity:1"
       id="g4152"
       transform="matrix(0.75672224,0,0,0.80646564,131.94766,558.53995)"
       inkscape:export-xdpi="90"
       inkscape:export-ydpi="90">
      <g
         id="g4139"
         style="filter:url(#filter4171)">
        <path
           id="path4143"
           style="fill:#000000"
           d="m 81.024833,172.10849 c -18.946004,0 -36.782008,5.69609 -52.406008,15.74844 0.562,-2.68208 1.121,-5.36174 1.683,-8.03053 3.977,-14.74779 9.157,-29.26625 16.238,-42.04412 7.153,-12.61251 15.129004,-24.537 24.340008,-33.82045 4.313,-5.154131 9.278,-8.924966 13.832,-13.173792 4.737995,-3.861369 9.589993,-7.166281 14.253989,-10.424117 4.874998,-2.626558 9.472998,-5.691262 14.101998,-7.756531 4.664,-1.88059 9.074,-4.135368 13.367,-5.525898 4.356,-1.291544 8.426,-2.508255 12.192,-3.625992 3.828,-0.768897 7.386,-1.291543 10.609,-1.876966 1.629,-0.272792 3.16,-0.541972 4.598,-0.777349 1.45,-0.160536 2.809,-0.150879 4.074,-0.226925 2.554,-0.123119 4.719,-0.216062 6.473,-0.296937 3.543,-0.179851 5.43,-0.269169 5.43,-0.269169 l 1.317,-13.83405 c 0,0 -2.004,-0.386257 -5.75,-1.112903 -1.882,-0.368152 -4.211,-0.811141 -6.946,-1.335003 -1.374,-0.24986 -2.855,-0.584215 -4.434,-0.81114 -1.586,-0.108635 -3.281,-0.216064 -5.07,-0.344011 -3.578,-0.21727 -7.57,-0.585421 -11.93,-0.731475 -4.374,0.235376 -9.105,0.494892 -14.152,0.759237 -5.07,0.415227 -10.383,1.669357 -16.094,2.598788 -5.676,1.103248 -11.468996,3.238527 -17.69499,5.006862 -5.995997,2.418932 -12.359997,4.96582 -18.741997,8.186241 -6.199004,3.621164 -12.965004,6.892282 -19.207008,11.749463 -13.09,8.689588 -25.492,20.816864 -37.355,34.847667 -11.7929988,14.19736 -21.9649987,31.39306 -30.690999,50.26295 -1.958001,4.87529 -3.918001,9.77471 -5.891001,14.68261 -1.023,2.39116 -1.914,5.03582 -2.706,7.87844 l -2.473,8.38419 -2.414,8.48197 c -0.442,1.53297 -0.711,2.69656 -0.942,3.79136 l -0.758,3.41838 -1.531,6.83193 -0.762,3.42803 -0.375001,1.70677 -0.195,0.85218 -0.09,0.43455 -0.051,0.21606 c -0.008,0.10863 -0.015,0.16536 -0.023,0.18951 0,-0.0145 0.008,-0.0712 0.008,-0.12312 -0.043,0.23055 -0.106,0.78217 -0.246,1.96629 -3.266,22.03357 -4.523,44.91087 -2.699,67.53348 2.137,22.41501 6.340001,44.60549 13.309001,64.95521 3.191,11.46703 7.633001,22.25085 13.133001,32.10523 9.0390005,16.21557 20.9259993,29.93133 34.792999,40.10077 0.074,0.0568 0.156,0.10864 0.23,0.16536 2.222,1.62228 4.504,3.1649 6.828,4.59284 0.082,0.0519 0.172,0.10865 0.254,0.16055 15.183,9.33052 32.363004,14.58363 50.566008,14.58363 17.620989,0 34.292987,-4.9272 49.108987,-13.70732 1.84,-1.08393 3.649,-2.23908 5.434,-3.44614 34.062,-23.0668 57.086,-67.07601 57.086,-117.58881 -0.003,-74.41249 -49.983,-134.73624 -111.630987,-134.73624 z"
           class="st0"
           inkscape:connector-curvature="0" />
      </g>
    </g>
    <g
       transform="matrix(0.75672224,0,0,0.80646564,332.93129,558.53995)"
       id="g4202"
       style="opacity:1"
       inkscape:export-xdpi="90"
       inkscape:export-ydpi="90">
      <g
         style="filter:url(#filter4171)"
         id="g4204">
        <path
           inkscape:connector-curvature="0"
           class="st0"
           d="m 81.024833,172.10849 c -18.946004,0 -36.782008,5.69609 -52.406008,15.74844 0.562,-2.68208 1.121,-5.36174 1.683,-8.03053 3.977,-14.74779 9.157,-29.26625 16.238,-42.04412 7.153,-12.61251 15.129004,-24.537 24.340008,-33.82045 4.313,-5.154131 9.278,-8.924966 13.832,-13.173792 4.737995,-3.861369 9.589993,-7.166281 14.253989,-10.424117 4.874998,-2.626558 9.472998,-5.691262 14.101998,-7.756531 4.664,-1.88059 9.074,-4.135368 13.367,-5.525898 4.356,-1.291544 8.426,-2.508255 12.192,-3.625992 3.828,-0.768897 7.386,-1.291543 10.609,-1.876966 1.629,-0.272792 3.16,-0.541972 4.598,-0.777349 1.45,-0.160536 2.809,-0.150879 4.074,-0.226925 2.554,-0.123119 4.719,-0.216062 6.473,-0.296937 3.543,-0.179851 5.43,-0.269169 5.43,-0.269169 l 1.317,-13.83405 c 0,0 -2.004,-0.386257 -5.75,-1.112903 -1.882,-0.368152 -4.211,-0.811141 -6.946,-1.335003 -1.374,-0.24986 -2.855,-0.584215 -4.434,-0.81114 -1.586,-0.108635 -3.281,-0.216064 -5.07,-0.344011 -3.578,-0.21727 -7.57,-0.585421 -11.93,-0.731475 -4.374,0.235376 -9.105,0.494892 -14.152,0.759237 -5.07,0.415227 -10.383,1.669357 -16.094,2.598788 -5.676,1.103248 -11.468996,3.238527 -17.69499,5.006862 -5.995997,2.418932 -12.359997,4.96582 -18.741997,8.186241 -6.199004,3.621164 -12.965004,6.892282 -19.207008,11.749463 -13.09,8.689588 -25.492,20.816864 -37.355,34.847667 -11.7929988,14.19736 -21.9649987,31.39306 -30.690999,50.26295 -1.958001,4.87529 -3.918001,9.77471 -5.891001,14.68261 -1.023,2.39116 -1.914,5.03582 -2.706,7.87844 l -2.473,8.38419 -2.414,8.48197 c -0.442,1.53297 -0.711,2.69656 -0.942,3.79136 l -0.758,3.41838 -1.531,6.83193 -0.762,3.42803 -0.375001,1.70677 -0.195,0.85218 -0.09,0.43455 -0.051,0.21606 c -0.008,0.10863 -0.015,0.16536 -0.023,0.18951 0,-0.0145 0.008,-0.0712 0.008,-0.12312 -0.043,0.23055 -0.106,0.78217 -0.246,1.96629 -3.266,22.03357 -4.523,44.91087 -2.699,67.53348 2.137,22.41501 6.340001,44.60549 13.309001,64.95521 3.191,11.46703 7.633001,22.25085 13.133001,32.10523 9.0390005,16.21557 20.9259993,29.93133 34.792999,40.10077 0.074,0.0568 0.156,0.10864 0.23,0.16536 2.222,1.62228 4.504,3.1649 6.828,4.59284 0.082,0.0519 0.172,0.10865 0.254,0.16055 15.183,9.33052 32.363004,14.58363 50.566008,14.58363 17.620989,0 34.292987,-4.9272 49.108987,-13.70732 1.84,-1.08393 3.649,-2.23908 5.434,-3.44614 34.062,-23.0668 57.086,-67.07601 57.086,-117.58881 -0.003,-74.41249 -49.983,-134.73624 -111.630987,-134.73624 z"
           style="fill:#000000"
           id="path4206" />
      </g>
    </g>
    <flowRoot
       xml:space="preserve"
       id="flowRoot4158"
       style="font-style:normal;font-variant:normal;font-weight:normal;font-stretch:normal;font-size:125px;line-height:125%;font-family:Verdana;-inkscape-font-specification:Verdana;letter-spacing:0px;word-spacing:0px;fill:#000000;fill-opacity:1;stroke:none;stroke-width:1px;stroke-linecap:butt;stroke-linejoin:miter;stroke-opacity:1"
       transform="translate(0,308.26772)"><flowRegion
         id="flowRegion4160"><rect
           id="rect4162"
           width="560"
           height="160"
           x="460"
           y="144.09448"
           style="font-style:normal;font-variant:normal;font-weight:normal;font-stretch:normal;font-size:125px;font-family:Verdana;-inkscape-font-specification:Verdana" /></flowRegion><flowPara
         id="flowPara4164" /></flowRoot>  </g>
  <g
     inkscape:groupmode="layer"
     id="layer5"
     inkscape:label="eye-color"
     transform="translate(0,-144.09444)"
     style="display:inline">
    <path
       inkscape:connector-curvature="0"
       style="opacity:1;fill:#999999;fill-opacity:1;fill-rule:nonzero;stroke:#f9f9f9;stroke-width:7.95521355;stroke-miterlimit:4;stroke-dasharray:none;stroke-opacity:1"
       d="m 225.75529,495.05883 a 50.891632,75.067542 0 0 1 -50.89163,75.06755 50.891632,75.067542 0 0 1 -50.89164,-75.06755 50.891632,75.067542 0 0 1 50.89164,-75.06752 50.891632,75.067542 0 0 1 50.89163,75.06752 z"
       id="path4177-5"
       inkscape:export-xdpi="90"
       inkscape:export-ydpi="90" />
    <path
       id="path4208"
       d="m 426.7389,495.05883 a 50.891632,75.067542 0 0 1 -50.89162,75.06755 50.891632,75.067542 0 0 1 -50.89162,-75.06755 50.891632,75.067542 0 0 1 50.89162,-75.06752 50.891632,75.067542 0 0 1 50.89162,75.06752 z"
       style="opacity:1;fill:#999999;fill-opacity:1;fill-rule:nonzero;stroke:#f9f9f9;stroke-width:7.95521355;stroke-miterlimit:4;stroke-dasharray:none;stroke-opacity:1"
       inkscape:connector-curvature="0"
       inkscape:export-xdpi="90"
       inkscape:export-ydpi="90" />
  </g>
  <g
     inkscape:groupmode="layer"
     id="layer4"
     inkscape:label="white-circle"
     transform="translate(0,-144.09444)"
     style="display:inline">
    <path
       style="opacity:1;fill:#f9f9f9;fill-opacity:1;fill-rule:nonzero;stroke:#f9f9f9;stroke-width:1.21596146;stroke-miterlimit:4;stroke-dasharray:none;stroke-opacity:1"
       d="m 222.31344,490.44585 a 33.979148,57.857961 0 0 1 -33.97916,57.85796 33.979148,57.857961 0 0 1 -33.97913,-57.85796 33.979148,57.857961 0 0 1 33.97913,-57.85797 33.979148,57.857961 0 0 1 33.97916,57.85797 z"
       id="path4177"
       inkscape:connector-curvature="0"
       inkscape:export-xdpi="90"
       inkscape:export-ydpi="90" />
    <path
       inkscape:connector-curvature="0"
       id="path4210"
       d="m 423.29706,490.44585 a 33.979148,57.857961 0 0 1 -33.97916,57.85796 33.979148,57.857961 0 0 1 -33.97913,-57.85796 33.979148,57.857961 0 0 1 33.97913,-57.85797 33.979148,57.857961 0 0 1 33.97916,57.85797 z"
       style="opacity:1;fill:#f9f9f9;fill-opacity:1;fill-rule:nonzero;stroke:#f9f9f9;stroke-width:1.21596146;stroke-miterlimit:4;stroke-dasharray:none;stroke-opacity:1"
       inkscape:export-xdpi="90"
       inkscape:export-ydpi="90" />
  </g>
  <style
     id="style4137"
     type="text/css">
	.st0{fill:#374149;}
</style>
</svg>
