<!--?xml version="1.0" encoding="utf-8"?-->
<!-- Generator: Adobe Illustrator 18.0.0, SVG Export Plug-In . SVG Version: 6.00 Build 0)  -->

<svg version="1.1" id="_x31_0" xmlns="http://www.w3.org/2000/svg" xmlns:xlink="http://www.w3.org/1999/xlink" x="0px" y="0px" viewBox="0 0 512 512" style="width: 256px; height: 256px; opacity: 1;" xml:space="preserve">
<style type="text/css">
	.st0{fill:#374149;}
</style>
<g>
	<path class="st0" d="M400.371,198.334c-18.946,0-36.782,4.719-52.406,13.047c0.566-2.222,1.122-4.442,1.688-6.653
		c3.976-12.218,9.152-24.246,16.238-34.832c7.149-10.449,15.126-20.328,24.336-28.019c4.313-4.27,9.278-7.394,13.836-10.914
		c4.734-3.199,9.586-5.937,14.25-8.636c4.874-2.176,9.473-4.715,14.106-6.426c4.66-1.558,9.07-3.426,13.366-4.578
		c4.352-1.07,8.426-2.078,12.188-3.004c3.832-0.637,7.386-1.07,10.613-1.555c1.626-0.226,3.157-0.449,4.598-0.644
		c1.445-0.133,2.804-0.125,4.074-0.188c2.551-0.102,4.719-0.179,6.469-0.246c3.543-0.149,5.434-0.223,5.434-0.223l1.317-11.461
		c0,0-2.004-0.32-5.75-0.922c-1.882-0.305-4.214-0.672-6.945-1.106c-1.375-0.207-2.856-0.484-4.438-0.672
		c-1.586-0.09-3.278-0.179-5.07-0.285c-3.574-0.18-7.566-0.485-11.93-0.606c-4.375,0.195-9.102,0.41-14.153,0.629
		c-5.07,0.344-10.378,1.383-16.09,2.153c-5.68,0.914-11.469,2.683-17.695,4.148c-5.996,2.004-12.359,4.114-18.742,6.782
		c-6.203,3-12.969,5.71-19.211,9.734c-13.086,7.199-25.488,17.246-37.351,28.87c-11.797,11.762-21.965,26.008-30.695,41.641
		c-1.953,4.039-3.918,8.098-5.89,12.164c-1.024,1.981-1.914,4.172-2.707,6.527l-2.469,6.946l-2.414,7.027
		c-0.441,1.27-0.71,2.234-0.941,3.141l-0.762,2.832l-1.527,5.66l-0.762,2.84l-0.379,1.414l-0.195,0.706l-0.09,0.36l-0.047,0.179
		c-0.011,0.09-0.019,0.137-0.027,0.157c0-0.012,0.008-0.059,0.008-0.102c-0.039,0.191-0.106,0.648-0.242,1.629
		c-3.266,18.254-4.527,37.207-2.703,55.949c2.137,18.57,6.344,36.954,13.313,53.813c3.191,9.5,7.633,18.434,13.129,26.598
		c9.039,13.434,20.926,24.797,34.793,33.222c0.074,0.047,0.157,0.09,0.23,0.137c2.223,1.344,4.508,2.622,6.832,3.805
		c0.082,0.043,0.172,0.09,0.25,0.133c15.187,7.73,32.367,12.082,50.566,12.082c17.621,0,34.297-4.082,49.11-11.356
		c1.843-0.898,3.652-1.855,5.434-2.855c34.066-19.11,57.086-55.57,57.086-97.418C512,248.31,462.023,198.334,400.371,198.334z" style="fill: rgb(0, 0, 0);"></path>
	<path class="st0" d="M119.954,198.334c-18.946,0-36.782,4.719-52.406,13.047c0.562-2.222,1.121-4.442,1.683-6.653
		c3.977-12.218,9.157-24.246,16.238-34.832c7.153-10.449,15.129-20.328,24.34-28.019c4.313-4.27,9.278-7.394,13.832-10.914
		c4.738-3.199,9.59-5.937,14.254-8.636c4.875-2.176,9.473-4.715,14.102-6.426c4.664-1.558,9.074-3.426,13.367-4.578
		c4.356-1.07,8.426-2.078,12.192-3.004c3.828-0.637,7.386-1.07,10.609-1.555c1.629-0.226,3.16-0.449,4.598-0.644
		c1.45-0.133,2.809-0.125,4.074-0.188c2.554-0.102,4.719-0.179,6.473-0.246c3.543-0.149,5.43-0.223,5.43-0.223l1.317-11.461
		c0,0-2.004-0.32-5.75-0.922c-1.882-0.305-4.211-0.672-6.946-1.106c-1.374-0.207-2.855-0.484-4.434-0.672
		c-1.586-0.09-3.281-0.179-5.07-0.285c-3.578-0.18-7.57-0.485-11.93-0.606c-4.374,0.195-9.105,0.41-14.152,0.629
		c-5.07,0.344-10.383,1.383-16.094,2.153c-5.676,0.914-11.469,2.683-17.695,4.148c-5.996,2.004-12.36,4.114-18.742,6.782
		c-6.199,3-12.965,5.71-19.207,9.734c-13.09,7.199-25.492,17.246-37.355,28.87c-11.793,11.762-21.965,26.008-30.691,41.641
		c-1.958,4.039-3.918,8.098-5.891,12.164c-1.023,1.981-1.914,4.172-2.706,6.527l-2.473,6.946l-2.414,7.027
		c-0.442,1.27-0.711,2.234-0.942,3.141l-0.758,2.832l-1.531,5.66l-0.762,2.84l-0.375,1.414l-0.195,0.706l-0.09,0.36l-0.051,0.179
		c-0.008,0.09-0.015,0.137-0.023,0.157c0-0.012,0.008-0.059,0.008-0.102c-0.043,0.191-0.106,0.648-0.246,1.629
		c-3.266,18.254-4.523,37.207-2.699,55.949c2.137,18.57,6.34,36.954,13.309,53.813c3.191,9.5,7.633,18.434,13.133,26.598
		c9.039,13.434,20.926,24.797,34.793,33.222c0.074,0.047,0.156,0.09,0.23,0.137c2.222,1.344,4.504,2.622,6.828,3.805
		c0.082,0.043,0.172,0.09,0.254,0.133c15.183,7.73,32.363,12.082,50.566,12.082c17.621,0,34.293-4.082,49.109-11.356
		c1.84-0.898,3.649-1.855,5.434-2.855c34.062-19.11,57.086-55.57,57.086-97.418C231.582,248.31,181.602,198.334,119.954,198.334z" style="fill: rgb(0, 0, 0);"></path>
</g>
</svg>
